<svg width="16" height="17" viewBox="0 0 16 17" fill="none" xmlns="http://www.w3.org/2000/svg">
<path d="M11.9231 6.5H7.07692C6.48215 6.5 6 6.98215 6 7.57692V12.4231C6 13.0178 6.48215 13.5 7.07692 13.5H11.9231C12.5178 13.5 13 13.0178 13 12.4231V7.57692C13 6.98215 12.5178 6.5 11.9231 6.5Z" stroke="#4E4B66" stroke-linecap="round" stroke-linejoin="round"/>
<path d="M4.07692 10.5C3.79131 10.5 3.51739 10.3865 3.31542 10.1846C3.11346 9.98261 3 9.70869 3 9.42308V4.57692C3 4.29131 3.11346 4.01739 3.31542 3.81542C3.51739 3.61346 3.79131 3.5 4.07692 3.5H8.92308C9.20869 3.5 9.48261 3.61346 9.68458 3.81542C9.88654 4.01739 10 4.29131 10 4.57692" stroke="#4E4B66" stroke-linecap="round" stroke-linejoin="round"/>
</svg>
