<svg width="24" height="24" viewBox="0 0 24 24" fill="none" xmlns="http://www.w3.org/2000/svg">
<path d="M16.7692 11H11.2308C10.551 11 10 11.551 10 12.2308V17.7692C10 18.449 10.551 19 11.2308 19H16.7692C17.449 19 18 18.449 18 17.7692V12.2308C18 11.551 17.449 11 16.7692 11Z" stroke="#6E7191" stroke-width="1.5" stroke-linecap="round" stroke-linejoin="round"/>
<path d="M7.23077 15C6.90435 15 6.5913 14.8703 6.36048 14.6395C6.12967 14.4087 6 14.0957 6 13.7692V8.23077C6 7.90435 6.12967 7.5913 6.36048 7.36048C6.5913 7.12967 6.90435 7 7.23077 7H12.7692C13.0957 7 13.4087 7.12967 13.6395 7.36048C13.8703 7.5913 14 7.90435 14 8.23077" stroke="#6E7191" stroke-width="1.5" stroke-linecap="round" stroke-linejoin="round"/>
</svg>
