<svg width="50" height="50" viewBox="0 0 50 50" fill="none" xmlns="http://www.w3.org/2000/svg">
<rect width="50" height="50" rx="8" fill="#262338"/>
<path d="M40 15.8468C38.8968 16.3279 37.7116 16.653 36.4657 16.7999C37.7513 16.0429 38.713 14.8515 39.1716 13.4479C37.9638 14.1539 36.6419 14.6509 35.2634 14.9172C34.3364 13.9432 33.1085 13.2975 31.7704 13.0806C30.4324 12.8637 29.059 13.0875 27.8634 13.7174C26.6679 14.3473 25.7171 15.348 25.1588 16.5642C24.6004 17.7803 24.4656 19.1439 24.7754 20.4431C22.328 20.3222 19.9339 19.6962 17.7483 18.6058C15.5627 17.5153 13.6345 15.9849 12.0889 14.1137C11.5604 15.0108 11.2565 16.051 11.2565 17.1588C11.2559 18.156 11.5055 19.138 11.983 20.0176C12.4606 20.8972 13.1514 21.6471 13.9941 22.201C13.0167 22.1704 12.061 21.9105 11.2063 21.443V21.521C11.2062 22.9197 11.6978 24.2753 12.5978 25.3579C13.4978 26.4405 14.7506 27.1833 16.1438 27.4603C15.2371 27.7018 14.2865 27.7374 13.3639 27.5644C13.7569 28.7678 14.5226 29.8203 15.5536 30.5742C16.5847 31.3282 17.8295 31.7461 19.1139 31.7692C16.9336 33.4535 14.241 34.3672 11.4692 34.3632C10.9782 34.3633 10.4876 34.3351 10 34.2786C12.8135 36.0589 16.0887 37.0037 19.4336 37C30.7566 37 36.9466 27.7711 36.9466 19.767C36.9466 19.5069 36.94 19.2443 36.9281 18.9843C38.1322 18.1274 39.1715 17.0663 39.9974 15.8507L40 15.8468Z" fill="#A0A3BD"/>
</svg>
