<svg width="50" height="50" viewBox="0 0 50 50" fill="none" xmlns="http://www.w3.org/2000/svg">
<rect width="50" height="50" rx="8" fill="#262338"/>
<path d="M17.5892 16C22.8852 16 27.178 20.0297 27.178 25.0002C27.178 29.9706 22.8848 34 17.5892 34C12.2935 34 8 29.9706 8 25.0002C8 20.0297 12.2932 16 17.5892 16ZM32.9024 16.5272C35.5504 16.5272 37.697 20.3203 37.697 25.0002H37.6973C37.6973 29.6788 35.5507 33.4731 32.9028 33.4731C30.2548 33.4731 28.1082 29.6788 28.1082 25.0002C28.1082 20.3215 30.2544 16.5272 32.9024 16.5272ZM40.3137 17.4097C41.2448 17.4097 42 20.808 42 25.0002C42 29.1911 41.2452 32.5906 40.3137 32.5906C39.3823 32.5906 38.6278 29.192 38.6278 25.0002C38.6278 20.8083 39.3826 17.4097 40.3137 17.4097Z" fill="#A0A3BD"/>
</svg>
