<svg width="114" height="29" viewBox="0 0 114 29" fill="none" xmlns="http://www.w3.org/2000/svg">
<path d="M51.1558 0.000553622C51.7597 0.000553622 52.2783 0.213698 52.7115 0.639987C53.1448 1.06628 53.3614 1.57653 53.3614 2.17075V25.7523C53.3614 26.3465 53.1448 26.8568 52.7115 27.2831C52.2783 27.7093 51.7597 27.9225 51.1558 27.9225C50.5388 27.9225 50.0136 27.7093 49.5804 27.2831C49.1472 26.8568 48.9305 26.3465 48.9305 25.7523V2.17075C48.9305 1.57653 49.1472 1.06628 49.5804 0.639987C50.0136 0.213698 50.5388 0.000553622 51.1558 0.000553622Z" fill="white"/>
<path d="M61.2975 8.00316C60.8117 7.60271 60.5295 7.11183 60.4507 6.53053C60.3851 5.94922 60.5426 5.41313 60.9233 4.92226L64.1332 0.833755C64.5402 0.355795 65.0325 0.0845197 65.6102 0.0199304C66.2009 -0.0575767 66.7523 0.0909786 67.2643 0.465596C67.7501 0.853132 68.0258 1.33755 68.0914 1.91885C68.1702 2.50016 68.0258 3.03625 67.6582 3.52713L64.4286 7.61563C64.0348 8.09359 63.5424 8.37132 62.9517 8.44883C62.3609 8.51342 61.8095 8.36486 61.2975 8.00316Z" fill="white"/>
<path d="M67.6385 24.2797C68.0192 24.7964 68.1768 25.3518 68.1111 25.9461C68.0455 26.5403 67.7632 27.0376 67.2643 27.4381C66.7392 27.8256 66.1747 27.9871 65.5708 27.9225C64.9669 27.845 64.4614 27.5608 64.0545 27.0699L54.7005 15.4632C54.3066 14.9594 54.1425 14.4104 54.2082 13.8162C54.2869 13.222 54.5758 12.7182 55.0746 12.3048C55.5866 11.9173 56.1446 11.7623 56.7485 11.8398C57.3524 11.9044 57.8644 12.1821 58.2845 12.673L67.6385 24.2797Z" fill="white"/>
<path d="M18.3929 0.872509C17.9728 0.44622 17.4542 0.233075 16.8372 0.233075H2.20557C1.58853 0.233075 1.0634 0.44622 0.630163 0.872509C0.210054 1.28588 0 1.78968 0 2.3839C0 2.97812 0.210054 3.48837 0.630163 3.91466C1.0634 4.34095 1.58853 4.5541 2.20557 4.5541H16.8372C17.4542 4.5541 17.9728 4.34095 18.3929 3.91466C18.8261 3.48837 19.0427 2.97812 19.0427 2.3839C19.0427 1.78968 18.8261 1.28588 18.3929 0.872509Z" fill="white"/>
<path d="M11.0869 12.5955C10.6537 12.1692 10.1286 11.956 9.51152 11.956C8.90761 11.956 8.38904 12.1692 7.9558 12.5955C7.52257 13.0217 7.30595 13.532 7.30595 14.1262V25.8492C7.30595 26.4434 7.52257 26.9537 7.9558 27.3799C8.38904 27.7933 8.90761 28 9.51152 28C10.1286 28 10.6537 27.7933 11.0869 27.3799C11.5202 26.9537 11.7368 26.4434 11.7368 25.8492V14.1262C11.7368 13.532 11.5202 13.0217 11.0869 12.5955Z" fill="white"/>
<path d="M36.3761 24.2603C35.9429 23.8211 35.4178 23.6015 34.8007 23.6015H29.5625C28.9455 23.6015 28.4138 23.8211 27.9674 24.2603C27.5342 24.6866 27.3175 25.2033 27.3175 25.8104C27.3175 26.4046 27.5342 26.9214 27.9674 27.3606C28.4138 27.7869 28.9455 28 29.5625 28H34.8007C35.4178 28 35.9429 27.7869 36.3761 27.3606C36.8094 26.9214 37.026 26.4046 37.026 25.8104C37.026 25.2033 36.8094 24.6866 36.3761 24.2603Z" fill="white"/>
<path d="M72.798 3.99217C73.2312 4.40554 73.7498 4.61223 74.3537 4.61223H89.005C89.6089 4.61223 90.1209 4.40554 90.541 3.99217C90.9742 3.56588 91.1908 3.05563 91.1908 2.4614C91.1908 1.86718 90.9742 1.35693 90.541 0.930639C90.1209 0.50435 89.6089 0.291205 89.005 0.291205H74.3537C73.7498 0.291205 73.2312 0.50435 72.798 0.930639C72.3779 1.35693 72.1678 1.86718 72.1678 2.4614C72.1678 3.05563 72.3779 3.56588 72.798 3.99217Z" fill="white"/>
<path d="M90.541 24.299C90.1209 23.8727 89.6089 23.6596 89.005 23.6596H76.638V16.2383H79.6313C80.2483 16.2383 80.7735 16.0252 81.2067 15.5989C81.6399 15.1597 81.8565 14.6429 81.8565 14.0487C81.8565 13.4416 81.6399 12.9249 81.2067 12.4986C80.7735 12.0594 80.2483 11.8398 79.6313 11.8398H74.3931C73.776 11.8398 73.2509 12.0594 72.8176 12.4986C72.3844 12.9249 72.1678 13.4416 72.1678 14.0487V25.8298C72.1678 26.424 72.3779 26.9343 72.798 27.3606C73.2312 27.7739 73.7498 27.9806 74.3537 27.9806H89.005C89.6089 27.9806 90.1209 27.7739 90.541 27.3606C90.9742 26.9343 91.1908 26.424 91.1908 25.8298C91.1908 25.2227 90.9742 24.7124 90.541 24.299Z" fill="white"/>
<path d="M109.603 20.5206L113.325 24.1828C113.759 24.6478 113.975 25.1645 113.975 25.7329C113.975 26.2884 113.759 26.8051 113.325 27.2831C112.84 27.7093 112.308 27.9225 111.73 27.9225C111.166 27.9225 110.647 27.7093 110.174 27.2831L106.453 23.6208C106.019 23.1558 105.803 22.6455 105.803 22.0901C105.803 21.5217 106.019 20.9985 106.453 20.5206C106.938 20.0943 107.463 19.8811 108.028 19.8811C108.606 19.8811 109.131 20.0943 109.603 20.5206Z" fill="white"/>
<path d="M32.178 7.49917L41.0966 26.7445C41.6017 27.8344 42.8946 28.3085 43.9845 27.8034C45.0744 27.2984 45.5485 26.0054 45.0434 24.9155L34.1985 1.51335C33.402 -0.205275 30.9592 -0.206165 30.1616 1.51199L19.2975 24.9142C18.7917 26.0037 19.2649 27.297 20.3544 27.8028C21.444 28.3086 22.7372 27.8354 23.243 26.7459L32.178 7.49917Z" fill="white"/>
<path d="M97.38 0.25C96.1374 0.25 95.13 1.25736 95.13 2.5C95.13 3.74264 96.1374 4.75 97.38 4.75H105.901C107.861 4.75 109.45 6.33887 109.45 8.29885C109.45 10.2588 107.861 11.8477 105.901 11.8477H97.3701C96.1275 11.8477 95.1201 12.8551 95.1201 14.0977V25.83C95.1201 27.0727 96.1275 28.08 97.3701 28.08C98.6128 28.08 99.6201 27.0727 99.6201 25.83V16.3477H105.901C110.347 16.3477 113.95 12.7441 113.95 8.29885C113.95 3.8536 110.347 0.25 105.901 0.25H97.38Z" fill="white"/>
</svg>
