<svg width="50" height="50" viewBox="0 0 50 50" fill="none" xmlns="http://www.w3.org/2000/svg">
<rect width="50" height="50" rx="8" fill="#262338"/>
<path d="M35.3961 14.9075C33.4837 14.0259 31.4337 13.3743 29.29 13.0038C29.271 13 29.2512 13.0024 29.2335 13.0107C29.2158 13.0189 29.2011 13.0326 29.1913 13.0498C28.9288 13.5212 28.6363 14.1358 28.4313 14.6213C26.1578 14.2741 23.8463 14.2741 21.5728 14.6213C21.3444 14.0832 21.087 13.5586 20.8015 13.0498C20.7919 13.0324 20.7772 13.0184 20.7596 13.0097C20.7419 13.001 20.7221 12.9981 20.7028 13.0012C18.5604 13.3717 16.5104 14.0234 14.5967 14.9063C14.5803 14.9133 14.5663 14.9254 14.5567 14.9408C10.6668 20.7862 9.60061 26.4873 10.1243 32.1168C10.1258 32.1306 10.13 32.1439 10.1367 32.156C10.1433 32.1681 10.1523 32.1787 10.1631 32.1871C12.4335 33.8767 14.9659 35.1639 17.6541 35.9946C17.6729 36.0005 17.6929 36.0005 17.7116 35.9945C17.7304 35.9886 17.7469 35.9771 17.7591 35.9614C18.3366 35.1692 18.8516 34.3323 19.2916 33.4533C19.3178 33.4022 19.2928 33.3408 19.2403 33.3204C18.4329 33.0096 17.6505 32.6345 16.9004 32.1986C16.8869 32.1907 16.8756 32.1795 16.8673 32.1661C16.8591 32.1526 16.8543 32.1373 16.8533 32.1215C16.8523 32.1056 16.8552 32.0898 16.8617 32.0754C16.8681 32.061 16.878 32.0484 16.8904 32.0389C17.0479 31.92 17.2054 31.7961 17.3554 31.6722C17.3689 31.661 17.3852 31.6539 17.4024 31.6517C17.4196 31.6494 17.4371 31.6521 17.4529 31.6594C22.3615 33.9132 27.6776 33.9132 32.5287 31.6594C32.5446 31.6516 32.5622 31.6486 32.5797 31.6507C32.5971 31.6527 32.6137 31.6597 32.6274 31.6709C32.7774 31.7961 32.9337 31.92 33.0924 32.0389C33.1049 32.0482 33.115 32.0606 33.1217 32.0749C33.1283 32.0892 33.1314 32.1049 33.1307 32.1208C33.13 32.1366 33.1254 32.152 33.1174 32.1656C33.1094 32.1791 33.0983 32.1905 33.0849 32.1986C32.3375 32.6381 31.56 33.0099 30.7437 33.3191C30.7312 33.3238 30.7198 33.3311 30.7103 33.3406C30.7007 33.3501 30.6933 33.3616 30.6884 33.3743C30.6836 33.387 30.6814 33.4006 30.6821 33.4142C30.6828 33.4279 30.6864 33.4412 30.6925 33.4533C31.1425 34.331 31.6575 35.1666 32.2237 35.9601C32.2355 35.9764 32.2519 35.9885 32.2707 35.995C32.2895 36.0014 32.3097 36.0017 32.3287 35.9959C35.0216 35.1675 37.5581 33.8797 39.831 32.1871C39.8421 32.1791 39.8514 32.1689 39.8583 32.157C39.8652 32.1451 39.8695 32.1318 39.871 32.1181C40.496 25.6095 38.8235 19.9544 35.4349 14.9433C35.4266 14.927 35.4128 14.9143 35.3961 14.9075ZM20.0253 28.6887C18.5479 28.6887 17.3291 27.3229 17.3291 25.6478C17.3291 23.9715 18.5241 22.6069 20.0253 22.6069C21.5378 22.6069 22.7452 23.983 22.7215 25.6478C22.7215 27.3242 21.5265 28.6887 20.0253 28.6887ZM29.9938 28.6887C28.5151 28.6887 27.2976 27.3229 27.2976 25.6478C27.2976 23.9715 28.4913 22.6069 29.9938 22.6069C31.5062 22.6069 32.7137 23.983 32.6899 25.6478C32.6899 27.3242 31.5075 28.6887 29.9938 28.6887Z" fill="#A0A3BD"/>
</svg>
