<svg width="20" height="20" viewBox="0 0 20 20" fill="none" xmlns="http://www.w3.org/2000/svg">
<path d="M6.5 9V12.5" stroke="#7646FF" stroke-width="1.25" stroke-linecap="round" stroke-linejoin="round"/>
<path d="M17 16H3" stroke="#7646FF" stroke-width="1.25" stroke-linecap="round" stroke-linejoin="round"/>
<path d="M4.8896 9C4.53634 9 4.34335 8.58798 4.56951 8.31659L6.17991 6.38411C6.34649 6.18421 6.65351 6.18421 6.82009 6.38411L8.43049 8.31659C8.65665 8.58798 8.46367 9 8.1104 9L4.8896 9Z" fill="#7646FF"/>
<path d="M13.5 6V13" stroke="#7646FF" stroke-width="1.25" stroke-linecap="round" stroke-linejoin="round"/>
<path d="M11.8896 6C11.5363 6 11.3434 5.58798 11.5695 5.31659L13.1799 3.38411C13.3465 3.18421 13.6535 3.18421 13.8201 3.38411L15.4305 5.31659C15.6566 5.58798 15.4637 6 15.1104 6L11.8896 6Z" fill="#7646FF"/>
</svg>
