<svg width="80" height="65" viewBox="0 0 80 65" fill="none" xmlns="http://www.w3.org/2000/svg">
<g opacity="0.5" clip-path="url(#clip0_10849_17923)">
<path d="M78.987 31V58C78.987 61.3137 76.3014 64 72.9884 64H7.00396C3.69103 64 1.00537 61.3137 1.00537 58L1.00537 31" stroke="#A0A3BD" stroke-width="1.5" stroke-linecap="round" stroke-linejoin="round"/>
<path d="M1.9336 28.5717L1.40321 28.0414H1.40321L1.9336 28.5717ZM12.7449 17.7579L13.2753 18.2881L13.2753 18.2881L12.7449 17.7579ZM29.4988 34H30.2488C30.2488 33.5858 29.913 33.25 29.4988 33.25V34ZM50.4939 34V33.25C50.0797 33.25 49.7439 33.5858 49.7439 34H50.4939ZM78.059 28.5717L78.5894 28.0414V28.0414L78.059 28.5717ZM67.2478 17.7579L67.7782 17.2276V17.2276L67.2478 17.7579ZM2.464 29.1019L13.2753 18.2881L12.2145 17.2276L1.40321 28.0414L2.464 29.1019ZM4.18247 33.25C2.01771 33.25 0.933461 30.6328 2.464 29.1019L1.40321 28.0414C-1.0721 30.5173 0.681444 34.75 4.18247 34.75V33.25ZM19.7511 33.25H4.18247V34.75H19.7511V33.25ZM29.4988 33.25H19.7511V34.75H29.4988V33.25ZM39.9963 43.75C34.6131 43.75 30.2488 39.3849 30.2488 34H28.7488C28.7488 40.213 33.7843 45.25 39.9963 45.25V43.75ZM49.7439 34C49.7439 39.3849 45.3796 43.75 39.9963 43.75V45.25C46.2083 45.25 51.2439 40.213 51.2439 34H49.7439ZM56.4924 33.25H50.4939V34.75H56.4924V33.25ZM75.8102 33.25H56.4924V34.75H75.8102V33.25ZM77.5286 29.1019C79.0592 30.6328 77.9749 33.25 75.8102 33.25V34.75C79.3112 34.75 81.0647 30.5173 78.5894 28.0414L77.5286 29.1019ZM66.7174 18.2881L77.5286 29.1019L78.5894 28.0414L67.7782 17.2276L66.7174 18.2881ZM63.0046 16.75C64.3972 16.75 65.7328 17.3033 66.7174 18.2881L67.7782 17.2276C66.5122 15.9614 64.7951 15.25 63.0046 15.25V16.75ZM16.988 16.75H63.0046V15.25H16.988V16.75ZM13.2753 18.2881C14.2599 17.3033 15.5954 16.75 16.988 16.75V15.25C15.1975 15.25 13.4804 15.9614 12.2145 17.2276L13.2753 18.2881Z" fill="#A0A3BD"/>
<path d="M39.9961 8.94118V1" stroke="#A0A3BD" stroke-width="1.5" stroke-linecap="round" stroke-linejoin="round"/>
<path d="M51.9937 9.9998L56.4926 4.17627" stroke="#A0A3BD" stroke-width="1.5" stroke-linecap="round" stroke-linejoin="round"/>
<path d="M27.999 9.9998L23.5001 4.17627" stroke="#A0A3BD" stroke-width="1.5" stroke-linecap="round" stroke-linejoin="round"/>
</g>
<defs>
<clipPath id="clip0_10849_17923">
<rect width="80" height="65" fill="white"/>
</clipPath>
</defs>
</svg>
