<svg width="14" height="14" viewBox="0 0 14 14" fill="none" xmlns="http://www.w3.org/2000/svg">
<circle cx="7" cy="7" r="6.5" stroke="#E1536C"/>
<path d="M7.00908 8.34798C6.73708 8.34798 6.58908 8.19598 6.56508 7.89198L6.21708 3.47598C6.20108 3.22798 6.26508 3.01998 6.40908 2.85198C6.56108 2.68398 6.75708 2.59998 6.99708 2.59998C7.23708 2.59998 7.43308 2.68398 7.58508 2.85198C7.73708 3.01998 7.80108 3.22798 7.77708 3.47598L7.44108 7.89198C7.41708 8.19598 7.27308 8.34798 7.00908 8.34798ZM6.92508 11C6.69308 11 6.51308 10.94 6.38508 10.82C6.26508 10.692 6.20508 10.512 6.20508 10.28V10.076C6.20508 9.84398 6.26508 9.66798 6.38508 9.54798C6.51308 9.41998 6.69308 9.35598 6.92508 9.35598H7.08108C7.31308 9.35598 7.48908 9.41998 7.60908 9.54798C7.73708 9.66798 7.80108 9.84398 7.80108 10.076V10.28C7.80108 10.512 7.73708 10.692 7.60908 10.82C7.48908 10.94 7.31308 11 7.08108 11H6.92508Z" fill="#E1536C"/>
</svg>
