<svg width="32" height="32" viewBox="0 0 32 32" fill="none" xmlns="http://www.w3.org/2000/svg">
<g opacity="0.7">
<path d="M23.1943 10.4171C23.6393 9.97216 23.6393 9.2507 23.1943 8.80571C22.7493 8.36073 22.0278 8.36073 21.5829 8.80571L16 14.3886L10.4171 8.80571C9.97216 8.36073 9.2507 8.36073 8.80571 8.80571C8.36073 9.2507 8.36073 9.97216 8.80571 10.4171L14.3886 16L8.80572 21.5829C8.36073 22.0278 8.36073 22.7493 8.80571 23.1943C9.2507 23.6393 9.97216 23.6393 10.4171 23.1943L16 17.6114L21.5829 23.1943C22.0278 23.6393 22.7493 23.6393 23.1943 23.1943C23.6393 22.7493 23.6393 22.0278 23.1943 21.5829L17.6114 16L23.1943 10.4171Z" fill="#14142A"/>
</g>
</svg>
