<svg width="65" height="16" viewBox="0 0 65 16" fill="none" xmlns="http://www.w3.org/2000/svg">
<path d="M9.60013 0.133186C9.95195 0.133186 10.2476 0.254983 10.4872 0.498576C10.7342 0.734789 10.8577 1.02267 10.8577 1.36223C10.8577 1.70178 10.7342 1.99336 10.4872 2.23695C10.2476 2.48054 9.95195 2.60234 9.60013 2.60234H1.25756C0.905743 2.60234 0.606324 2.48054 0.359303 2.23695C0.119768 1.99336 0 1.70178 0 1.36223C0 1.02267 0.119768 0.734789 0.359303 0.498576C0.606324 0.254983 0.905743 0.133186 1.25756 0.133186H9.60013ZM5.42323 6.83202C5.77505 6.83202 6.07447 6.95381 6.32149 7.19741C6.56851 7.441 6.69202 7.73257 6.69202 8.07213V14.771C6.69202 15.1105 6.56851 15.4021 6.32149 15.6457C6.07447 15.8819 5.77505 16 5.42323 16C5.0789 16 4.78322 15.8819 4.5362 15.6457C4.28918 15.4021 4.16567 15.1105 4.16567 14.771V8.07213C4.16567 7.73257 4.28918 7.441 4.5362 7.19741C4.78322 6.95381 5.0789 6.83202 5.42323 6.83202Z" fill="url(#paint0_linear_3216_12762)"/>
<path d="M25.6812 14.2948C25.8159 14.6123 25.8234 14.9223 25.7037 15.2249C25.5914 15.5202 25.378 15.7416 25.0636 15.8893C24.7418 16.0221 24.4274 16.0332 24.1205 15.9225C23.8211 15.8044 23.5965 15.5903 23.4468 15.2803L18.3492 4.21892L13.2516 15.2803C13.1018 15.5903 12.8735 15.8044 12.5666 15.9225C12.2597 16.0332 11.9491 16.0221 11.6347 15.8893C11.3203 15.7416 11.1032 15.5202 10.9834 15.2249C10.8712 14.9223 10.8824 14.6123 11.0171 14.2948L17.1814 0.908257C17.2713 0.708953 17.4023 0.546557 17.5744 0.421069C17.5969 0.398924 17.6193 0.376779 17.6418 0.354635C17.6493 0.354635 17.653 0.354635 17.653 0.354635C17.6755 0.339871 17.6979 0.325108 17.7204 0.310345C17.7428 0.295582 17.7616 0.284509 17.7765 0.277128C17.784 0.269746 17.7915 0.266055 17.799 0.266055C17.8065 0.258673 17.8102 0.254983 17.8102 0.254983C17.8177 0.254983 17.8252 0.251292 17.8327 0.24391C17.8402 0.236529 17.8514 0.232838 17.8664 0.232838C17.8664 0.232838 17.8701 0.229147 17.8776 0.221765C17.8776 0.221765 17.8813 0.221765 17.8888 0.221765C17.8963 0.221765 17.9038 0.218074 17.9113 0.210693C17.9113 0.210693 17.915 0.210693 17.9225 0.210693C17.93 0.210693 17.9337 0.207002 17.9337 0.19962C17.9562 0.192239 17.9749 0.188548 17.9899 0.188548C18.1021 0.15164 18.2219 0.133186 18.3492 0.133186C18.4764 0.133186 18.5962 0.15164 18.7085 0.188548C18.716 0.188548 18.7197 0.188548 18.7197 0.188548C18.7571 0.203311 18.7908 0.214384 18.8208 0.221765C18.8208 0.229147 18.8245 0.232838 18.832 0.232838C18.8395 0.232838 18.8432 0.232838 18.8432 0.232838C18.8507 0.240219 18.8544 0.24391 18.8544 0.24391C18.8844 0.258673 18.9106 0.273437 18.933 0.2882C18.9405 0.2882 18.9443 0.2882 18.9443 0.2882C18.9443 0.2882 18.948 0.2882 18.9555 0.2882C19.0229 0.33249 19.0865 0.38047 19.1464 0.432142C19.3036 0.565011 19.4271 0.723716 19.5169 0.908257L25.6812 14.2948ZM19.8425 13.4866C20.1943 13.4866 20.4938 13.612 20.7408 13.863C20.9878 14.1066 21.1113 14.4019 21.1113 14.7488C21.1113 15.0884 20.9878 15.3836 20.7408 15.6346C20.4938 15.8782 20.1943 16 19.8425 16H16.8558C16.504 16 16.2008 15.8782 15.9463 15.6346C15.6993 15.3836 15.5758 15.0884 15.5758 14.7488C15.5758 14.4019 15.6993 14.1066 15.9463 13.863C16.2008 13.612 16.504 13.4866 16.8558 13.4866H19.8425Z" fill="url(#paint1_linear_3216_12762)"/>
<path d="M29.1678 0.000316356C29.5121 0.000316356 29.8078 0.122113 30.0548 0.365707C30.3018 0.609301 30.4253 0.900875 30.4253 1.24043V14.7156C30.4253 15.0552 30.3018 15.3467 30.0548 15.5903C29.8078 15.8339 29.5121 15.9557 29.1678 15.9557C28.816 15.9557 28.5166 15.8339 28.2695 15.5903C28.0225 15.3467 27.899 15.0552 27.899 14.7156V1.24043C27.899 0.900875 28.0225 0.609301 28.2695 0.365707C28.5166 0.122113 28.816 0.000316356 29.1678 0.000316356ZM34.9503 4.57324C34.6734 4.34441 34.5124 4.0639 34.4675 3.73173C34.4301 3.39956 34.5199 3.09322 34.737 2.81272L36.5672 0.476432C36.7992 0.203311 37.0799 0.048297 37.4093 0.0113888C37.7462 -0.032901 38.0605 0.0519878 38.3525 0.266055C38.6294 0.487504 38.7866 0.764315 38.8241 1.09649C38.869 1.42866 38.7866 1.735 38.577 2.0155L36.7356 4.35179C36.511 4.62491 36.2303 4.78361 35.8935 4.8279C35.5566 4.86481 35.2423 4.77992 34.9503 4.57324ZM38.5658 13.8741C38.7829 14.1694 38.8727 14.4868 38.8353 14.8263C38.7979 15.1659 38.6369 15.4501 38.3525 15.6789C38.0531 15.9003 37.7312 15.9926 37.3868 15.9557C37.0425 15.9114 36.7543 15.749 36.5223 15.4685L31.1889 8.83613C30.9643 8.54824 30.8707 8.23453 30.9082 7.89497C30.9531 7.55542 31.1178 7.26753 31.4022 7.03132C31.6941 6.80987 32.0123 6.72129 32.3566 6.76558C32.7009 6.80249 32.9929 6.96119 33.2324 7.2417L38.5658 13.8741Z" fill="url(#paint2_linear_3216_12762)"/>
<path d="M42.3946 2.63556C42.0503 2.63556 41.7546 2.51745 41.5076 2.28124C41.2681 2.03765 41.1483 1.74607 41.1483 1.40652C41.1483 1.06696 41.2681 0.775388 41.5076 0.531794C41.7546 0.2882 42.0503 0.166403 42.3946 0.166403H50.7484C51.0928 0.166403 51.3847 0.2882 51.6242 0.531794C51.8713 0.775388 51.9948 1.06696 51.9948 1.40652C51.9948 1.74607 51.8713 2.03765 51.6242 2.28124C51.3847 2.51745 51.0928 2.63556 50.7484 2.63556H42.3946ZM50.7484 13.5198C51.0928 13.5198 51.3847 13.6416 51.6242 13.8852C51.8713 14.1214 51.9948 14.413 51.9948 14.7599C51.9948 15.0994 51.8713 15.391 51.6242 15.6346C51.3847 15.8708 51.0928 15.9889 50.7484 15.9889H42.3946C42.0503 15.9889 41.7546 15.8708 41.5076 15.6346C41.2681 15.391 41.1483 15.0994 41.1483 14.7599C41.1483 14.7525 41.1483 14.7488 41.1483 14.7488C41.1483 14.7414 41.1483 14.7377 41.1483 14.7377C41.1483 14.7377 41.1483 14.7341 41.1483 14.7267C41.1483 14.7267 41.1483 14.723 41.1483 14.7156V8.06106C41.1483 8.06106 41.1483 8.05737 41.1483 8.04998C41.1483 8.04998 41.1483 8.04629 41.1483 8.03891C41.1483 8.03153 41.1483 8.02784 41.1483 8.02784C41.1483 7.6809 41.2718 7.38564 41.5188 7.14204C41.7659 6.89107 42.0653 6.76558 42.4171 6.76558H45.4038C45.7556 6.76558 46.055 6.89107 46.3021 7.14204C46.5491 7.38564 46.6726 7.6809 46.6726 8.02784C46.6726 8.36739 46.5491 8.66266 46.3021 8.91364C46.055 9.15723 45.7556 9.27903 45.4038 9.27903H43.6971V13.5198H50.7484Z" fill="url(#paint3_linear_3216_12762)"/>
<path d="M64.402 2.34767C64.8286 3.14489 65.027 3.93842 64.997 4.72825C65.012 5.2302 64.9372 5.74692 64.7725 6.27839C64.6078 6.80249 64.3346 7.29337 63.9528 7.75103C63.5786 8.20869 63.0808 8.58146 62.4595 8.86935C61.8382 9.15723 61.0821 9.30117 60.1914 9.30117L56.778 9.32332V14.7599C56.778 15.1068 56.6545 15.4021 56.4075 15.6457C56.1604 15.8819 55.861 16 55.5092 16C55.1649 16 54.8692 15.8819 54.6222 15.6457C54.3751 15.4021 54.2516 15.1068 54.2516 14.7599V8.07213C54.2516 7.73996 54.3639 7.45576 54.5885 7.21955C54.8505 6.94643 55.1649 6.80987 55.5317 6.80987L56.9464 6.82094C57.0737 6.82094 57.2421 6.82094 57.4517 6.82094C57.9158 6.82094 58.4323 6.82094 59.0012 6.82094C59.5776 6.82094 59.978 6.82094 60.2026 6.82094C60.8164 6.82094 61.3142 6.61795 61.696 6.21196C62.0852 5.80597 62.2873 5.32247 62.3023 4.76147H62.291C62.291 4.20046 62.0927 3.71328 61.696 3.29991C61.3067 2.87915 60.8052 2.66878 60.1914 2.66878C60.0192 2.66878 59.7348 2.66878 59.338 2.66878C58.9488 2.66878 58.5446 2.66878 58.1254 2.66878C57.7137 2.66878 57.3731 2.66878 57.1036 2.66878C57.0437 2.66878 56.9876 2.66878 56.9352 2.66878L55.5204 2.67985C55.1686 2.67985 54.8654 2.55436 54.6109 2.30339C54.3639 2.04503 54.2404 1.74607 54.2404 1.40652C54.2404 1.05958 54.3639 0.764315 54.6109 0.520721C54.858 0.277128 55.1536 0.155331 55.498 0.155331H56.7443C58.0082 0.168246 59.2851 0.153127 60.5507 0.166403C61.2543 0.173785 61.827 0.269746 62.2686 0.454287C62.7102 0.631446 63.092 0.886112 63.4139 1.21829C63.7807 1.52093 64.0801 1.86049 64.3121 2.23695C64.3421 2.27386 64.372 2.31077 64.402 2.34767ZM62.4932 11.726L64.6153 13.8187C64.8623 14.0845 64.9858 14.3797 64.9858 14.7045C64.9858 15.0219 64.8623 15.3172 64.6153 15.5903C64.3383 15.8339 64.0352 15.9557 63.7058 15.9557C63.3839 15.9557 63.0883 15.8339 62.8188 15.5903L60.6966 13.4976C60.4496 13.2319 60.3261 12.9403 60.3261 12.6229C60.3261 12.2981 60.4496 11.9992 60.6966 11.726C60.9736 11.4824 61.273 11.3606 61.5949 11.3606C61.9243 11.3606 62.2237 11.4824 62.4932 11.726Z" fill="url(#paint4_linear_3216_12762)"/>
<defs>
<linearGradient id="paint0_linear_3216_12762" x1="-2.17929e-08" y1="4.88" x2="59.2989" y2="26.2787" gradientUnits="userSpaceOnUse">
<stop stop-color="#7646FF"/>
<stop offset="1" stop-color="#00D6C9"/>
</linearGradient>
<linearGradient id="paint1_linear_3216_12762" x1="-2.17929e-08" y1="4.88" x2="59.2989" y2="26.2787" gradientUnits="userSpaceOnUse">
<stop stop-color="#7646FF"/>
<stop offset="1" stop-color="#00D6C9"/>
</linearGradient>
<linearGradient id="paint2_linear_3216_12762" x1="-2.17929e-08" y1="4.88" x2="59.2989" y2="26.2787" gradientUnits="userSpaceOnUse">
<stop stop-color="#7646FF"/>
<stop offset="1" stop-color="#00D6C9"/>
</linearGradient>
<linearGradient id="paint3_linear_3216_12762" x1="-2.17929e-08" y1="4.88" x2="59.2989" y2="26.2787" gradientUnits="userSpaceOnUse">
<stop stop-color="#7646FF"/>
<stop offset="1" stop-color="#00D6C9"/>
</linearGradient>
<linearGradient id="paint4_linear_3216_12762" x1="-2.17929e-08" y1="4.88" x2="59.2989" y2="26.2787" gradientUnits="userSpaceOnUse">
<stop stop-color="#7646FF"/>
<stop offset="1" stop-color="#00D6C9"/>
</linearGradient>
</defs>
</svg>
