<svg width="44" height="44" viewBox="0 0 44 44" fill="none" xmlns="http://www.w3.org/2000/svg">
<path d="M0 22C0 9.84974 9.84974 0 22 0C34.1503 0 44 9.84974 44 22C44 34.1503 34.1503 44 22 44C9.84974 44 0 34.1503 0 22Z" fill="#E1536C" fill-opacity="0.1"/>
<path d="M16.1664 16.1664C14.6734 17.6593 13.75 19.7218 13.75 22C13.75 26.5563 17.4437 30.25 22 30.25C26.5563 30.25 30.25 26.5563 30.25 22C30.25 17.4437 26.5563 13.75 22 13.75" stroke="#E1536C" stroke-width="2" stroke-linecap="round"/>
<path d="M23.9577 17.4344L21.1301 13.3422L25.4523 10.8804" stroke="#E1536C" stroke-width="2" stroke-linecap="round" stroke-linejoin="round"/>
</svg>
