<svg width="88" height="35" viewBox="0 0 88 35" fill="none" xmlns="http://www.w3.org/2000/svg">
<path d="M12.5244 8.00879C12.9834 8.00879 13.3691 8.16992 13.6816 8.49219C14.0039 8.80469 14.165 9.18555 14.165 9.63477C14.165 10.084 14.0039 10.4697 13.6816 10.792C13.3691 11.1143 12.9834 11.2754 12.5244 11.2754H1.64062C1.18164 11.2754 0.791016 11.1143 0.46875 10.792C0.15625 10.4697 0 10.084 0 9.63477C0 9.18555 0.15625 8.80469 0.46875 8.49219C0.791016 8.16992 1.18164 8.00879 1.64062 8.00879H12.5244ZM7.0752 16.8711C7.53418 16.8711 7.9248 17.0322 8.24707 17.3545C8.56934 17.6768 8.73047 18.0625 8.73047 18.5117V27.374C8.73047 27.8232 8.56934 28.209 8.24707 28.5312C7.9248 28.8438 7.53418 29 7.0752 29C6.62598 29 6.24023 28.8438 5.91797 28.5312C5.5957 28.209 5.43457 27.8232 5.43457 27.374V18.5117C5.43457 18.0625 5.5957 17.6768 5.91797 17.3545C6.24023 17.0322 6.62598 16.8711 7.0752 16.8711ZM33.5039 26.7441C33.6797 27.1641 33.6895 27.5742 33.5332 27.9746C33.3867 28.3652 33.1084 28.6582 32.6982 28.8535C32.2783 29.0293 31.8682 29.0439 31.4678 28.8975C31.0771 28.7412 30.7842 28.458 30.5889 28.0479L23.9385 13.4141L17.2881 28.0479C17.0928 28.458 16.7949 28.7412 16.3945 28.8975C15.9941 29.0439 15.5889 29.0293 15.1787 28.8535C14.7686 28.6582 14.4854 28.3652 14.3291 27.9746C14.1826 27.5742 14.1973 27.1641 14.373 26.7441L22.415 9.03418C22.5322 8.77051 22.7031 8.55566 22.9277 8.38965C22.957 8.36035 22.9863 8.33105 23.0156 8.30176C23.0254 8.30176 23.0303 8.30176 23.0303 8.30176C23.0596 8.28223 23.0889 8.2627 23.1182 8.24316C23.1475 8.22363 23.1719 8.20898 23.1914 8.19922C23.2012 8.18945 23.2109 8.18457 23.2207 8.18457C23.2305 8.1748 23.2354 8.16992 23.2354 8.16992C23.2451 8.16992 23.2549 8.16504 23.2646 8.15527C23.2744 8.14551 23.2891 8.14062 23.3086 8.14062C23.3086 8.14062 23.3135 8.13574 23.3232 8.12598C23.3232 8.12598 23.3281 8.12598 23.3379 8.12598C23.3477 8.12598 23.3574 8.12109 23.3672 8.11133C23.3672 8.11133 23.3721 8.11133 23.3818 8.11133C23.3916 8.11133 23.3965 8.10645 23.3965 8.09668C23.4258 8.08691 23.4502 8.08203 23.4697 8.08203C23.6162 8.0332 23.7725 8.00879 23.9385 8.00879C24.1045 8.00879 24.2607 8.0332 24.4072 8.08203C24.417 8.08203 24.4219 8.08203 24.4219 8.08203C24.4707 8.10156 24.5146 8.11621 24.5537 8.12598C24.5537 8.13574 24.5586 8.14062 24.5684 8.14062C24.5781 8.14062 24.583 8.14062 24.583 8.14062C24.5928 8.15039 24.5977 8.15527 24.5977 8.15527C24.6367 8.1748 24.6709 8.19434 24.7002 8.21387C24.71 8.21387 24.7148 8.21387 24.7148 8.21387C24.7148 8.21387 24.7197 8.21387 24.7295 8.21387C24.8174 8.27246 24.9004 8.33594 24.9785 8.4043C25.1836 8.58008 25.3447 8.79004 25.4619 9.03418L33.5039 26.7441ZM25.8867 25.6748C26.3457 25.6748 26.7363 25.8408 27.0586 26.1729C27.3809 26.4951 27.542 26.8857 27.542 27.3447C27.542 27.7939 27.3809 28.1846 27.0586 28.5166C26.7363 28.8389 26.3457 29 25.8867 29H21.9902C21.5312 29 21.1357 28.8389 20.8037 28.5166C20.4814 28.1846 20.3203 27.7939 20.3203 27.3447C20.3203 26.8857 20.4814 26.4951 20.8037 26.1729C21.1357 25.8408 21.5312 25.6748 21.9902 25.6748H25.8867ZM38.0525 7.83301C38.5018 7.83301 38.8875 7.99414 39.2098 8.31641C39.532 8.63867 39.6932 9.02441 39.6932 9.47363V27.3008C39.6932 27.75 39.532 28.1357 39.2098 28.458C38.8875 28.7803 38.5018 28.9414 38.0525 28.9414C37.5936 28.9414 37.2029 28.7803 36.8807 28.458C36.5584 28.1357 36.3973 27.75 36.3973 27.3008V9.47363C36.3973 9.02441 36.5584 8.63867 36.8807 8.31641C37.2029 7.99414 37.5936 7.83301 38.0525 7.83301ZM45.5965 13.8828C45.2352 13.5801 45.0252 13.209 44.9666 12.7695C44.9178 12.3301 45.035 11.9248 45.3182 11.5537L47.7059 8.46289C48.0086 8.10156 48.3748 7.89648 48.8045 7.84766C49.2439 7.78906 49.6541 7.90137 50.035 8.18457C50.3963 8.47754 50.6014 8.84375 50.6502 9.2832C50.7088 9.72266 50.6014 10.1279 50.3279 10.499L47.9256 13.5898C47.6326 13.9512 47.2664 14.1611 46.827 14.2197C46.3875 14.2686 45.9773 14.1562 45.5965 13.8828ZM50.3133 26.1875C50.5965 26.5781 50.7137 26.998 50.6648 27.4473C50.616 27.8965 50.4061 28.2725 50.035 28.5752C49.6443 28.8682 49.2244 28.9902 48.7752 28.9414C48.326 28.8828 47.95 28.668 47.6473 28.2969L40.6893 19.5225C40.3963 19.1416 40.2742 18.7266 40.323 18.2773C40.3816 17.8281 40.5965 17.4473 40.9676 17.1348C41.3484 16.8418 41.7635 16.7246 42.2127 16.7832C42.6619 16.832 43.0428 17.042 43.3553 17.4131L50.3133 26.1875ZM55.3084 11.3193C54.8592 11.3193 54.4734 11.1631 54.1512 10.8506C53.8387 10.5283 53.6824 10.1426 53.6824 9.69336C53.6824 9.24414 53.8387 8.8584 54.1512 8.53613C54.4734 8.21387 54.8592 8.05273 55.3084 8.05273H66.2068C66.6561 8.05273 67.0369 8.21387 67.3494 8.53613C67.6717 8.8584 67.8328 9.24414 67.8328 9.69336C67.8328 10.1426 67.6717 10.5283 67.3494 10.8506C67.0369 11.1631 66.6561 11.3193 66.2068 11.3193H55.3084ZM66.2068 25.7188C66.6561 25.7188 67.0369 25.8799 67.3494 26.2021C67.6717 26.5146 67.8328 26.9004 67.8328 27.3594C67.8328 27.8086 67.6717 28.1943 67.3494 28.5166C67.0369 28.8291 66.6561 28.9854 66.2068 28.9854H55.3084C54.8592 28.9854 54.4734 28.8291 54.1512 28.5166C53.8387 28.1943 53.6824 27.8086 53.6824 27.3594C53.6824 27.3496 53.6824 27.3447 53.6824 27.3447C53.6824 27.335 53.6824 27.3301 53.6824 27.3301C53.6824 27.3301 53.6824 27.3252 53.6824 27.3154C53.6824 27.3154 53.6824 27.3105 53.6824 27.3008V18.4971C53.6824 18.4971 53.6824 18.4922 53.6824 18.4824C53.6824 18.4824 53.6824 18.4775 53.6824 18.4678C53.6824 18.458 53.6824 18.4531 53.6824 18.4531C53.6824 17.9941 53.8436 17.6035 54.1658 17.2812C54.4881 16.9492 54.8787 16.7832 55.3377 16.7832H59.2342C59.6932 16.7832 60.0838 16.9492 60.4061 17.2812C60.7283 17.6035 60.8895 17.9941 60.8895 18.4531C60.8895 18.9023 60.7283 19.293 60.4061 19.625C60.0838 19.9473 59.6932 20.1084 59.2342 20.1084H57.0076V25.7188H66.2068ZM84.0193 10.9385C84.576 11.9932 84.8348 13.043 84.7957 14.0879C84.8152 14.752 84.7176 15.4355 84.5027 16.1387C84.2879 16.832 83.9314 17.4814 83.4334 18.0869C82.9451 18.6924 82.2957 19.1855 81.4852 19.5664C80.6746 19.9473 79.6883 20.1377 78.5262 20.1377L74.073 20.167V27.3594C74.073 27.8184 73.9119 28.209 73.5896 28.5312C73.2674 28.8438 72.8768 29 72.4178 29C71.9686 29 71.5828 28.8438 71.2605 28.5312C70.9383 28.209 70.7771 27.8184 70.7771 27.3594V18.5117C70.7771 18.0723 70.9236 17.6963 71.2166 17.3838C71.5584 17.0225 71.9686 16.8418 72.4471 16.8418L74.2928 16.8564C74.4588 16.8564 74.6785 16.8564 74.952 16.8564C75.5574 16.8564 76.2312 16.8564 76.9734 16.8564C77.7254 16.8564 78.2478 16.8564 78.5408 16.8564C79.3416 16.8564 79.991 16.5879 80.4891 16.0508C80.9969 15.5137 81.2605 14.874 81.2801 14.1318H81.2654C81.2654 13.3896 81.0066 12.7451 80.4891 12.1982C79.9812 11.6416 79.327 11.3633 78.5262 11.3633C78.3016 11.3633 77.9305 11.3633 77.4129 11.3633C76.9051 11.3633 76.3777 11.3633 75.8309 11.3633C75.2937 11.3633 74.8494 11.3633 74.4978 11.3633C74.4197 11.3633 74.3465 11.3633 74.2781 11.3633L72.4324 11.3779C71.9734 11.3779 71.5779 11.2119 71.2459 10.8799C70.9236 10.5381 70.7625 10.1426 70.7625 9.69336C70.7625 9.23438 70.9236 8.84375 71.2459 8.52148C71.5682 8.19922 71.9539 8.03809 72.4031 8.03809H74.0291L76.8562 8.06738C76.9246 8.05762 76.9881 8.05273 77.0467 8.05273C77.0467 8.05273 77.1883 8.05273 77.4715 8.05273C77.7547 8.05273 78.1062 8.05273 78.5262 8.05273V8.03809C78.6824 8.03809 78.8387 8.04297 78.9949 8.05273C79.9129 8.0625 80.66 8.18945 81.2361 8.43359C81.8123 8.66797 82.3103 9.00488 82.7303 9.44434C83.2088 9.84473 83.5994 10.2939 83.9021 10.792C83.9412 10.8408 83.9803 10.8896 84.0193 10.9385ZM81.5291 23.3457L84.2977 26.1143C84.6199 26.4658 84.7811 26.8564 84.7811 27.2861C84.7811 27.7061 84.6199 28.0967 84.2977 28.458C83.9363 28.7803 83.5408 28.9414 83.1111 28.9414C82.6912 28.9414 82.3055 28.7803 81.9539 28.458L79.1853 25.6895C78.8631 25.3379 78.702 24.9521 78.702 24.5322C78.702 24.1025 78.8631 23.707 79.1853 23.3457C79.5467 23.0234 79.9373 22.8623 80.3572 22.8623C80.7869 22.8623 81.1775 23.0234 81.5291 23.3457Z" fill="url(#paint0_linear_684_5848)"/>
<defs>
<linearGradient id="paint0_linear_684_5848" x1="-2.95043e-08" y1="10.675" x2="86.425" y2="29.977" gradientUnits="userSpaceOnUse">
<stop stop-color="#7646FF"/>
<stop offset="1" stop-color="#00D6C9"/>
</linearGradient>
</defs>
</svg>
