<svg width="21" height="22" viewBox="0 0 21 22" fill="none" xmlns="http://www.w3.org/2000/svg">
<path d="M10.5 21.5C16.299 21.5 21 16.799 21 11C21 5.20101 16.299 0.5 10.5 0.5C4.70101 0.5 0 5.20101 0 11C0 16.799 4.70101 21.5 10.5 21.5Z" fill="#7646FF"/>
<path d="M10.8271 3.125V8.94594L15.7471 11.1444L10.8271 3.125Z" fill="white" fill-opacity="0.602"/>
<path d="M10.8268 3.125L5.90625 11.1444L10.8268 8.94594V3.125Z" fill="white"/>
<path d="M10.8271 14.9165V18.8717L15.7503 12.0605L10.8271 14.9165Z" fill="white" fill-opacity="0.602"/>
<path d="M10.8268 18.8717V14.9158L5.90625 12.0605L10.8268 18.8717Z" fill="white"/>
<path d="M10.8271 14.001L15.7471 11.1444L10.8271 8.94727V14.001Z" fill="white" fill-opacity="0.2"/>
<path d="M5.90625 11.1444L10.8268 14.001V8.94727L5.90625 11.1444Z" fill="white" fill-opacity="0.602"/>
</svg>
