<svg width="24" height="25" viewBox="0 0 24 25" fill="none" xmlns="http://www.w3.org/2000/svg">
<path d="M8 11.5V15.5" stroke="white" stroke-width="1.5" stroke-linecap="round" stroke-linejoin="round"/>
<path d="M20.5 19.5H4" stroke="white" stroke-width="1.5" stroke-linecap="round" stroke-linejoin="round"/>
<path d="M6 12C5.58798 12 5.35279 11.5296 5.6 11.2L7.6 8.53333C7.8 8.26667 8.2 8.26667 8.4 8.53333L10.4 11.2C10.6472 11.5296 10.412 12 10 12L6 12Z" fill="white"/>
<path d="M16 7.5V15.5" stroke="white" stroke-width="1.5" stroke-linecap="round" stroke-linejoin="round"/>
<path d="M14 8C13.588 8 13.3528 7.52962 13.6 7.2L15.6 4.53333C15.8 4.26667 16.2 4.26667 16.4 4.53333L18.4 7.2C18.6472 7.52962 18.412 8 18 8L14 8Z" fill="white"/>
</svg>
