<svg width="78" height="78" viewBox="0 0 78 78" fill="none" xmlns="http://www.w3.org/2000/svg">
<g filter="url(#filter0_di_3467_23934)">
<path d="M58 4H20C13.3726 4 8 9.37258 8 16V54C8 60.6274 13.3726 66 20 66H58C64.6274 66 70 60.6274 70 54V16C70 9.37258 64.6274 4 58 4Z" fill="#262338"/>
<path d="M58 4H20C13.3726 4 8 9.37258 8 16V54C8 60.6274 13.3726 66 20 66H58C64.6274 66 70 60.6274 70 54V16C70 9.37258 64.6274 4 58 4Z" fill="url(#paint0_linear_3467_23934)" fill-opacity="0.2"/>
</g>
<path d="M53 20H26C24.8954 20 24 20.8954 24 22L24 49C24 50.1046 24.8954 51 26 51H52.9692C54.0738 51 54.9692 50.1046 54.9692 49V42.0625M32.0004 25H52.9692C54.0738 25 54.9692 25.8954 54.9692 27V33.5" stroke="white" stroke-width="2" stroke-linecap="round" stroke-linejoin="round"/>
<path d="M40 36C40 34.8954 40.8954 34 42 34H56C57.1046 34 58 34.8954 58 36V40C58 41.1046 57.1046 42 56 42H42C40.8954 42 40 41.1046 40 40V36Z" stroke="white" stroke-width="2"/>
<defs>
<filter id="filter0_di_3467_23934" x="0" y="0" width="78" height="78" filterUnits="userSpaceOnUse" color-interpolation-filters="sRGB">
<feFlood flood-opacity="0" result="BackgroundImageFix"/>
<feColorMatrix in="SourceAlpha" type="matrix" values="0 0 0 0 0 0 0 0 0 0 0 0 0 0 0 0 0 0 127 0" result="hardAlpha"/>
<feOffset dy="4"/>
<feGaussianBlur stdDeviation="4"/>
<feComposite in2="hardAlpha" operator="out"/>
<feColorMatrix type="matrix" values="0 0 0 0 0.294118 0 0 0 0 0.294118 0 0 0 0 0.478431 0 0 0 0.1 0"/>
<feBlend mode="normal" in2="BackgroundImageFix" result="effect1_dropShadow_3467_23934"/>
<feBlend mode="normal" in="SourceGraphic" in2="effect1_dropShadow_3467_23934" result="shape"/>
<feColorMatrix in="SourceAlpha" type="matrix" values="0 0 0 0 0 0 0 0 0 0 0 0 0 0 0 0 0 0 127 0" result="hardAlpha"/>
<feOffset dy="2"/>
<feGaussianBlur stdDeviation="1"/>
<feComposite in2="hardAlpha" operator="arithmetic" k2="-1" k3="1"/>
<feColorMatrix type="matrix" values="0 0 0 0 0.294931 0 0 0 0 0.336881 0 0 0 0 0.516667 0 0 0 0.5 0"/>
<feBlend mode="normal" in2="shape" result="effect2_innerShadow_3467_23934"/>
</filter>
<linearGradient id="paint0_linear_3467_23934" x1="8" y1="66" x2="79.7324" y2="26.539" gradientUnits="userSpaceOnUse">
<stop stop-color="#66A6E8" stop-opacity="0"/>
<stop offset="0.525245" stop-color="#878FF8" stop-opacity="0.49"/>
<stop offset="1" stop-color="#69A5E9"/>
</linearGradient>
</defs>
</svg>
