<svg width="18" height="18" viewBox="0 0 18 18" fill="none" xmlns="http://www.w3.org/2000/svg">
<path d="M9 18C13.9706 18 18 13.9706 18 9C18 4.02944 13.9706 0 9 0C4.02944 0 0 4.02944 0 9C0 13.9706 4.02944 18 9 18Z" fill="#262338"/>
<path d="M9.28027 2.25V7.23938L13.4973 9.12375L9.28027 2.25Z" fill="white" fill-opacity="0.602"/>
<path d="M9.28012 2.25L5.0625 9.12375L9.28012 7.23938V2.25Z" fill="white"/>
<path d="M9.28027 12.3582V15.7483L13.5001 9.91016L9.28027 12.3582Z" fill="white" fill-opacity="0.602"/>
<path d="M9.28012 15.7483V12.3576L5.0625 9.91016L9.28012 15.7483Z" fill="white"/>
<path d="M9.28027 11.572L13.4973 9.12348L9.28027 7.24023V11.572Z" fill="white" fill-opacity="0.2"/>
<path d="M5.0625 9.12348L9.28012 11.572V7.24023L5.0625 9.12348Z" fill="white" fill-opacity="0.602"/>
</svg>
