<svg width="21" height="20" viewBox="0 0 21 20" fill="none" xmlns="http://www.w3.org/2000/svg">
<path d="M7 9V12.5" stroke="white" stroke-width="1.25" stroke-linecap="round" stroke-linejoin="round"/>
<path d="M17.5 16H3.5" stroke="white" stroke-width="1.25" stroke-linecap="round" stroke-linejoin="round"/>
<path d="M5.3896 9C5.03634 9 4.84335 8.58798 5.06951 8.31659L6.67991 6.38411C6.84649 6.18421 7.15351 6.18421 7.32009 6.38411L8.93049 8.31659C9.15665 8.58798 8.96367 9 8.6104 9L5.3896 9Z" fill="white"/>
<path d="M14 6V13" stroke="white" stroke-width="1.25" stroke-linecap="round" stroke-linejoin="round"/>
<path d="M12.3896 6C12.0363 6 11.8434 5.58798 12.0695 5.31659L13.6799 3.38411C13.8465 3.18421 14.1535 3.18421 14.3201 3.38411L15.9305 5.31659C16.1566 5.58798 15.9637 6 15.6104 6L12.3896 6Z" fill="white"/>
</svg>
