<svg width="14" height="14" viewBox="0 0 14 14" fill="none" xmlns="http://www.w3.org/2000/svg">
<path d="M7 14C10.866 14 14 10.866 14 7C14 3.13401 10.866 0 7 0C3.13401 0 0 3.13401 0 7C0 10.866 3.13401 14 7 14Z" fill="black"/>
<path d="M3.29004 4.23495C3.29004 3.59706 3.80715 3.07995 4.44504 3.07995L9.62504 3.07995C10.2629 3.07995 10.78 3.59706 10.78 4.23495C10.78 4.87284 10.2629 5.38995 9.62504 5.38995H4.44504C3.80715 5.38995 3.29004 4.87284 3.29004 4.23495Z" fill="url(#paint0_linear_136_133)"/>
<path d="M5.87988 7.59494C5.87988 6.95705 6.39699 6.43994 7.03488 6.43994C7.67278 6.43994 8.18988 6.95705 8.18988 7.59494V10.7449C8.18988 11.3828 7.67278 11.8999 7.03488 11.8999C6.39699 11.8999 5.87988 11.3828 5.87988 10.7449V7.59494Z" fill="url(#paint1_linear_136_133)"/>
<defs>
<linearGradient id="paint0_linear_136_133" x1="3.29004" y1="4.23828" x2="5.08215" y2="2.31345" gradientUnits="userSpaceOnUse">
<stop stop-color="#8D34FF"/>
<stop offset="1" stop-color="#2BFFF2"/>
</linearGradient>
<linearGradient id="paint1_linear_136_133" x1="6.97223" y1="11.7249" x2="5.36461" y2="8.56199" gradientUnits="userSpaceOnUse">
<stop stop-color="#8D34FF"/>
<stop offset="1" stop-color="#2BFFF2"/>
</linearGradient>
</defs>
</svg>
