<svg width="74" height="74" viewBox="0 0 74 74" fill="none" xmlns="http://www.w3.org/2000/svg">
<g filter="url(#filter0_di_4356_14497)">
<path d="M56 2H18C11.3726 2 6 7.37258 6 14V52C6 58.6274 11.3726 64 18 64H56C62.6274 64 68 58.6274 68 52V14C68 7.37258 62.6274 2 56 2Z" fill="#262338"/>
<path d="M56 2H18C11.3726 2 6 7.37258 6 14V52C6 58.6274 11.3726 64 18 64H56C62.6274 64 68 58.6274 68 52V14C68 7.37258 62.6274 2 56 2Z" fill="url(#paint0_linear_4356_14497)" fill-opacity="0.2"/>
</g>
<path fill-rule="evenodd" clip-rule="evenodd" d="M37 25L42 33L37 41L32 33L37 25Z" stroke="white" stroke-width="2" stroke-linejoin="round"/>
<path d="M49.4737 41.3339C50.017 40.5223 50.4833 39.6547 50.8619 38.7416C51.5952 36.973 52 35.0338 52 33C52 24.7157 45.2843 18 37 18C34.9662 18 33.027 18.4048 31.2584 19.1381C30.3453 19.5167 29.4777 19.983 28.6661 20.5263C27.8481 21.0739 27.0869 21.6999 26.3934 22.3934M23.1381 27.2584C22.4048 29.027 22 30.9662 22 33C22 41.2843 28.7157 48 37 48C39.0338 48 40.973 47.5952 42.7416 46.8619C43.6547 46.4833 44.5223 46.017 45.3339 45.4737" stroke="white" stroke-width="2" stroke-linecap="round" stroke-linejoin="round"/>
<path d="M41.1033 43.2859L46.5674 44.75L45.1033 50.2141" stroke="white" stroke-width="2" stroke-linecap="round" stroke-linejoin="round"/>
<path d="M31.0183 23.6716L25.383 23.1786L25.876 17.5433" stroke="white" stroke-width="2" stroke-linecap="round" stroke-linejoin="round"/>
<defs>
<filter id="filter0_di_4356_14497" x="-2" y="-2" width="78" height="78" filterUnits="userSpaceOnUse" color-interpolation-filters="sRGB">
<feFlood flood-opacity="0" result="BackgroundImageFix"/>
<feColorMatrix in="SourceAlpha" type="matrix" values="0 0 0 0 0 0 0 0 0 0 0 0 0 0 0 0 0 0 127 0" result="hardAlpha"/>
<feOffset dy="4"/>
<feGaussianBlur stdDeviation="4"/>
<feComposite in2="hardAlpha" operator="out"/>
<feColorMatrix type="matrix" values="0 0 0 0 0.294118 0 0 0 0 0.294118 0 0 0 0 0.478431 0 0 0 0.2 0"/>
<feBlend mode="normal" in2="BackgroundImageFix" result="effect1_dropShadow_4356_14497"/>
<feBlend mode="normal" in="SourceGraphic" in2="effect1_dropShadow_4356_14497" result="shape"/>
<feColorMatrix in="SourceAlpha" type="matrix" values="0 0 0 0 0 0 0 0 0 0 0 0 0 0 0 0 0 0 127 0" result="hardAlpha"/>
<feOffset dy="2"/>
<feGaussianBlur stdDeviation="1"/>
<feComposite in2="hardAlpha" operator="arithmetic" k2="-1" k3="1"/>
<feColorMatrix type="matrix" values="0 0 0 0 0.294931 0 0 0 0 0.336881 0 0 0 0 0.516667 0 0 0 0.5 0"/>
<feBlend mode="normal" in2="shape" result="effect2_innerShadow_4356_14497"/>
</filter>
<linearGradient id="paint0_linear_4356_14497" x1="6" y1="64" x2="77.7324" y2="24.539" gradientUnits="userSpaceOnUse">
<stop stop-color="#66A6E8" stop-opacity="0"/>
<stop offset="0.525245" stop-color="#878FF8" stop-opacity="0.49"/>
<stop offset="1" stop-color="#69A5E9"/>
</linearGradient>
</defs>
</svg>
