<svg width="74" height="74" viewBox="0 0 74 74" fill="none" xmlns="http://www.w3.org/2000/svg">
<g filter="url(#filter0_d_4356_14538)">
<path d="M56 3H18C11.3726 3 6 8.37258 6 15V53C6 59.6274 11.3726 65 18 65H56C62.6274 65 68 59.6274 68 53V15C68 8.37258 62.6274 3 56 3Z" fill="url(#paint0_linear_4356_14538)"/>
</g>
<path fill-rule="evenodd" clip-rule="evenodd" d="M37 26L42 34L37 42L32 34L37 26Z" stroke="white" stroke-width="2" stroke-linejoin="round"/>
<path d="M49.4737 42.3339C50.017 41.5223 50.4833 40.6547 50.8619 39.7416C51.5952 37.973 52 36.0338 52 34C52 25.7157 45.2843 19 37 19C34.9662 19 33.027 19.4048 31.2584 20.1381C30.3453 20.5167 29.4777 20.983 28.6661 21.5263C27.8481 22.0739 27.0869 22.6999 26.3934 23.3934M23.1381 28.2584C22.4048 30.027 22 31.9662 22 34C22 42.2843 28.7157 49 37 49C39.0338 49 40.973 48.5952 42.7416 47.8619C43.6547 47.4833 44.5223 47.017 45.3339 46.4737" stroke="white" stroke-width="2" stroke-linecap="round" stroke-linejoin="round"/>
<path d="M41.1023 44.2859L46.5664 45.75L45.1023 51.2141" stroke="white" stroke-width="2" stroke-linecap="round" stroke-linejoin="round"/>
<path d="M31.0193 24.6716L25.3839 24.1786L25.877 18.5433" stroke="white" stroke-width="2" stroke-linecap="round" stroke-linejoin="round"/>
<defs>
<filter id="filter0_d_4356_14538" x="-2" y="-1" width="78" height="78" filterUnits="userSpaceOnUse" color-interpolation-filters="sRGB">
<feFlood flood-opacity="0" result="BackgroundImageFix"/>
<feColorMatrix in="SourceAlpha" type="matrix" values="0 0 0 0 0 0 0 0 0 0 0 0 0 0 0 0 0 0 127 0" result="hardAlpha"/>
<feOffset dy="4"/>
<feGaussianBlur stdDeviation="4"/>
<feComposite in2="hardAlpha" operator="out"/>
<feColorMatrix type="matrix" values="0 0 0 0 0.5075 0 0 0 0 0.4375 0 0 0 0 0.9375 0 0 0 0.05 0"/>
<feBlend mode="normal" in2="BackgroundImageFix" result="effect1_dropShadow_4356_14538"/>
<feBlend mode="normal" in="SourceGraphic" in2="effect1_dropShadow_4356_14538" result="shape"/>
</filter>
<linearGradient id="paint0_linear_4356_14538" x1="68" y1="3" x2="-0.113961" y2="10.6643" gradientUnits="userSpaceOnUse">
<stop stop-color="#7F6AFF"/>
<stop offset="1" stop-color="#8E6BFD"/>
</linearGradient>
</defs>
</svg>
