<svg width="74" height="74" viewBox="0 0 74 74" fill="none" xmlns="http://www.w3.org/2000/svg">
<g filter="url(#filter0_di_4356_13982)">
<path d="M56 2H18C11.3726 2 6 7.37258 6 14V52C6 58.6274 11.3726 64 18 64H56C62.6274 64 68 58.6274 68 52V14C68 7.37258 62.6274 2 56 2Z" fill="#262338"/>
<path d="M56 2H18C11.3726 2 6 7.37258 6 14V52C6 58.6274 11.3726 64 18 64H56C62.6274 64 68 58.6274 68 52V14C68 7.37258 62.6274 2 56 2Z" fill="url(#paint0_linear_4356_13982)" fill-opacity="0.2"/>
</g>
<path d="M41.0152 20.5H49.5005V28.9853" stroke="white" stroke-width="2" stroke-linecap="round" stroke-linejoin="round"/>
<path d="M49 21L35 35" stroke="white" stroke-width="2" stroke-linecap="round" stroke-linejoin="round"/>
<path fill-rule="evenodd" clip-rule="evenodd" d="M33.5 38C34.3284 38 35 37.3284 35 36.5C35 35.6716 34.3284 35 33.5 35C32.6716 35 32 35.6716 32 36.5C32 37.3284 32.6716 38 33.5 38Z" fill="white" stroke="white" stroke-width="2" stroke-linecap="round" stroke-linejoin="round"/>
<path d="M37 18C28.7157 18 22 24.7157 22 33C22 41.2843 28.7157 48 37 48C45.2843 48 52 41.2843 52 33" stroke="white" stroke-width="2" stroke-linecap="round" stroke-linejoin="round"/>
<defs>
<filter id="filter0_di_4356_13982" x="-2" y="-2" width="78" height="78" filterUnits="userSpaceOnUse" color-interpolation-filters="sRGB">
<feFlood flood-opacity="0" result="BackgroundImageFix"/>
<feColorMatrix in="SourceAlpha" type="matrix" values="0 0 0 0 0 0 0 0 0 0 0 0 0 0 0 0 0 0 127 0" result="hardAlpha"/>
<feOffset dy="4"/>
<feGaussianBlur stdDeviation="4"/>
<feComposite in2="hardAlpha" operator="out"/>
<feColorMatrix type="matrix" values="0 0 0 0 0.294118 0 0 0 0 0.294118 0 0 0 0 0.478431 0 0 0 0.2 0"/>
<feBlend mode="normal" in2="BackgroundImageFix" result="effect1_dropShadow_4356_13982"/>
<feBlend mode="normal" in="SourceGraphic" in2="effect1_dropShadow_4356_13982" result="shape"/>
<feColorMatrix in="SourceAlpha" type="matrix" values="0 0 0 0 0 0 0 0 0 0 0 0 0 0 0 0 0 0 127 0" result="hardAlpha"/>
<feOffset dy="2"/>
<feGaussianBlur stdDeviation="1"/>
<feComposite in2="hardAlpha" operator="arithmetic" k2="-1" k3="1"/>
<feColorMatrix type="matrix" values="0 0 0 0 0.294931 0 0 0 0 0.336881 0 0 0 0 0.516667 0 0 0 0.5 0"/>
<feBlend mode="normal" in2="shape" result="effect2_innerShadow_4356_13982"/>
</filter>
<linearGradient id="paint0_linear_4356_13982" x1="6" y1="64" x2="77.7324" y2="24.539" gradientUnits="userSpaceOnUse">
<stop stop-color="#66A6E8" stop-opacity="0"/>
<stop offset="0.525245" stop-color="#878FF8" stop-opacity="0.49"/>
<stop offset="1" stop-color="#69A5E9"/>
</linearGradient>
</defs>
</svg>
