<svg width="82" height="82" viewBox="0 0 82 82" fill="none" xmlns="http://www.w3.org/2000/svg">
<g filter="url(#filter0_d_2688_10235)">
<path d="M60 5H22C15.3726 5 10 10.3726 10 17V55C10 61.6274 15.3726 67 22 67H60C66.6274 67 72 61.6274 72 55V17C72 10.3726 66.6274 5 60 5Z" fill="url(#paint0_linear_2688_10235)"/>
</g>
<path fill-rule="evenodd" clip-rule="evenodd" d="M41 28L46 36L41 44L36 36L41 28Z" stroke="white" stroke-width="2" stroke-linejoin="round"/>
<path d="M53.4737 44.3339C54.017 43.5223 54.4833 42.6547 54.8619 41.7416C55.5952 39.973 56 38.0338 56 36C56 27.7157 49.2843 21 41 21C38.9662 21 37.027 21.4048 35.2584 22.1381C34.3453 22.5167 33.4777 22.983 32.6661 23.5263C31.8481 24.0739 31.0869 24.6999 30.3934 25.3934M27.1381 30.2584C26.4048 32.027 26 33.9662 26 36C26 44.2843 32.7157 51 41 51C43.0338 51 44.973 50.5952 46.7416 49.8619C47.6547 49.4833 48.5223 49.017 49.3339 48.4737" stroke="white" stroke-width="2" stroke-linecap="round" stroke-linejoin="round"/>
<path d="M45.1023 46.2859L50.5664 47.75L49.1023 53.2141" stroke="white" stroke-width="2" stroke-linecap="round" stroke-linejoin="round"/>
<path d="M35.0193 26.6716L29.3839 26.1786L29.877 20.5433" stroke="white" stroke-width="2" stroke-linecap="round" stroke-linejoin="round"/>
<defs>
<filter id="filter0_d_2688_10235" x="0" y="0" width="82" height="82" filterUnits="userSpaceOnUse" color-interpolation-filters="sRGB">
<feFlood flood-opacity="0" result="BackgroundImageFix"/>
<feColorMatrix in="SourceAlpha" type="matrix" values="0 0 0 0 0 0 0 0 0 0 0 0 0 0 0 0 0 0 127 0" result="hardAlpha"/>
<feOffset dy="5"/>
<feGaussianBlur stdDeviation="5"/>
<feComposite in2="hardAlpha" operator="out"/>
<feColorMatrix type="matrix" values="0 0 0 0 0.5075 0 0 0 0 0.4375 0 0 0 0 0.9375 0 0 0 0.05 0"/>
<feBlend mode="normal" in2="BackgroundImageFix" result="effect1_dropShadow_2688_10235"/>
<feBlend mode="normal" in="SourceGraphic" in2="effect1_dropShadow_2688_10235" result="shape"/>
</filter>
<linearGradient id="paint0_linear_2688_10235" x1="72" y1="5" x2="3.88604" y2="12.6643" gradientUnits="userSpaceOnUse">
<stop stop-color="#7F6AFF"/>
<stop offset="1" stop-color="#8E6BFD"/>
</linearGradient>
</defs>
</svg>
