<svg width="74" height="74" viewBox="0 0 74 74" fill="none" xmlns="http://www.w3.org/2000/svg">
<g filter="url(#filter0_d_4356_14547)">
<path d="M56 2H18C11.3726 2 6 7.37258 6 14V52C6 58.6274 11.3726 64 18 64H56C62.6274 64 68 58.6274 68 52V14C68 7.37258 62.6274 2 56 2Z" fill="url(#paint0_linear_4356_14547)"/>
</g>
<path d="M41.0152 20.5H49.5005V28.9853" stroke="white" stroke-width="2" stroke-linecap="round" stroke-linejoin="round"/>
<path d="M49 21L35 35" stroke="white" stroke-width="2" stroke-linecap="round" stroke-linejoin="round"/>
<path fill-rule="evenodd" clip-rule="evenodd" d="M33.5 38C34.3284 38 35 37.3284 35 36.5C35 35.6716 34.3284 35 33.5 35C32.6716 35 32 35.6716 32 36.5C32 37.3284 32.6716 38 33.5 38Z" fill="white" stroke="white" stroke-width="2" stroke-linecap="round" stroke-linejoin="round"/>
<path d="M37 18C28.7157 18 22 24.7157 22 33C22 41.2843 28.7157 48 37 48C45.2843 48 52 41.2843 52 33" stroke="white" stroke-width="2" stroke-linecap="round" stroke-linejoin="round"/>
<defs>
<filter id="filter0_d_4356_14547" x="-4" y="-3" width="82" height="82" filterUnits="userSpaceOnUse" color-interpolation-filters="sRGB">
<feFlood flood-opacity="0" result="BackgroundImageFix"/>
<feColorMatrix in="SourceAlpha" type="matrix" values="0 0 0 0 0 0 0 0 0 0 0 0 0 0 0 0 0 0 127 0" result="hardAlpha"/>
<feOffset dy="5"/>
<feGaussianBlur stdDeviation="5"/>
<feComposite in2="hardAlpha" operator="out"/>
<feColorMatrix type="matrix" values="0 0 0 0 0.491554 0 0 0 0 0.4375 0 0 0 0 0.9375 0 0 0 0.05 0"/>
<feBlend mode="normal" in2="BackgroundImageFix" result="effect1_dropShadow_4356_14547"/>
<feBlend mode="normal" in="SourceGraphic" in2="effect1_dropShadow_4356_14547" result="shape"/>
</filter>
<linearGradient id="paint0_linear_4356_14547" x1="68" y1="2" x2="-0.113961" y2="9.66432" gradientUnits="userSpaceOnUse">
<stop stop-color="#7076FF"/>
<stop offset="1" stop-color="#796AFF"/>
</linearGradient>
</defs>
</svg>
