<svg width="62" height="62" viewBox="0 0 62 62" fill="none" xmlns="http://www.w3.org/2000/svg">
<g opacity="0.6">
<path d="M50 0H12C5.37258 0 0 5.37258 0 12V50C0 56.6274 5.37258 62 12 62H50C56.6274 62 62 56.6274 62 50V12C62 5.37258 56.6274 0 50 0Z" fill="#262338"/>
<path d="M50 0H12C5.37258 0 0 5.37258 0 12V50C0 56.6274 5.37258 62 12 62H50C56.6274 62 62 56.6274 62 50V12C62 5.37258 56.6274 0 50 0Z" fill="url(#paint0_linear_341_2737)" fill-opacity="0.2"/>
<path d="M50 0H12C5.37258 0 0 5.37258 0 12V50C0 56.6274 5.37258 62 12 62H50C56.6274 62 62 56.6274 62 50V12C62 5.37258 56.6274 0 50 0Z" fill="#93A3E1"/>
</g>
<path fill-rule="evenodd" clip-rule="evenodd" d="M31 23L36 31L31 39L26 31L31 23Z" stroke="white" stroke-width="2" stroke-linejoin="round"/>
<path d="M43.4737 39.3339C44.017 38.5223 44.4833 37.6547 44.8619 36.7416C45.5952 34.973 46 33.0338 46 31C46 22.7157 39.2843 16 31 16C28.9662 16 27.027 16.4048 25.2584 17.1381C24.3453 17.5167 23.4777 17.983 22.6661 18.5263C21.8481 19.0739 21.0869 19.6999 20.3934 20.3934M17.1381 25.2584C16.4048 27.027 16 28.9662 16 31C16 39.2843 22.7157 46 31 46C33.0338 46 34.973 45.5952 36.7416 44.8619C37.6547 44.4833 38.5223 44.017 39.3339 43.4737" stroke="white" stroke-width="2" stroke-linecap="round" stroke-linejoin="round"/>
<path d="M35.1023 41.2859L40.5664 42.75L39.1023 48.2141" stroke="white" stroke-width="2" stroke-linecap="round" stroke-linejoin="round"/>
<path d="M25.0193 21.6716L19.3839 21.1786L19.877 15.5433" stroke="white" stroke-width="2" stroke-linecap="round" stroke-linejoin="round"/>
<defs>
<linearGradient id="paint0_linear_341_2737" x1="0" y1="62" x2="71.7324" y2="22.539" gradientUnits="userSpaceOnUse">
<stop stop-color="#66A6E8" stop-opacity="0"/>
<stop offset="0.525245" stop-color="#878FF8" stop-opacity="0.49"/>
<stop offset="1" stop-color="#69A5E9"/>
</linearGradient>
</defs>
</svg>
