<svg width="62" height="62" viewBox="0 0 62 62" fill="none" xmlns="http://www.w3.org/2000/svg">
<g opacity="0.6">
<path d="M50 0H12C5.37258 0 0 5.37258 0 12V50C0 56.6274 5.37258 62 12 62H50C56.6274 62 62 56.6274 62 50V12C62 5.37258 56.6274 0 50 0Z" fill="#262338"/>
<path d="M50 0H12C5.37258 0 0 5.37258 0 12V50C0 56.6274 5.37258 62 12 62H50C56.6274 62 62 56.6274 62 50V12C62 5.37258 56.6274 0 50 0Z" fill="url(#paint0_linear_341_2772)" fill-opacity="0.2"/>
<path d="M50 0H12C5.37258 0 0 5.37258 0 12V50C0 56.6274 5.37258 62 12 62H50C56.6274 62 62 56.6274 62 50V12C62 5.37258 56.6274 0 50 0Z" fill="#93A3E1"/>
</g>
<path d="M35.0152 18.5H43.5005V26.9853" stroke="white" stroke-width="2" stroke-linecap="round" stroke-linejoin="round"/>
<path d="M43 19L29 33" stroke="white" stroke-width="2" stroke-linecap="round" stroke-linejoin="round"/>
<path fill-rule="evenodd" clip-rule="evenodd" d="M27.5 36C28.3284 36 29 35.3284 29 34.5C29 33.6716 28.3284 33 27.5 33C26.6716 33 26 33.6716 26 34.5C26 35.3284 26.6716 36 27.5 36Z" fill="white" stroke="white" stroke-width="2" stroke-linecap="round" stroke-linejoin="round"/>
<path d="M31 16C22.7157 16 16 22.7157 16 31C16 39.2843 22.7157 46 31 46C39.2843 46 46 39.2843 46 31" stroke="white" stroke-width="2" stroke-linecap="round" stroke-linejoin="round"/>
<defs>
<linearGradient id="paint0_linear_341_2772" x1="0" y1="62" x2="71.7324" y2="22.539" gradientUnits="userSpaceOnUse">
<stop stop-color="#66A6E8" stop-opacity="0"/>
<stop offset="0.525245" stop-color="#878FF8" stop-opacity="0.49"/>
<stop offset="1" stop-color="#69A5E9"/>
</linearGradient>
</defs>
</svg>
