<svg width="45" height="45" viewBox="0 0 45 45" fill="none" xmlns="http://www.w3.org/2000/svg">
<path d="M36 7H9C7.89543 7 7 7.89543 7 9L7 36C7 37.1046 7.89543 38 9 38H35.9692C37.0738 38 37.9692 37.1046 37.9692 36V29.0625M15.0004 12H35.9692C37.0738 12 37.9692 12.8954 37.9692 14V20.5" stroke="white" stroke-width="2" stroke-linecap="round" stroke-linejoin="round"/>
<path d="M23 23C23 21.8954 23.8954 21 25 21H39C40.1046 21 41 21.8954 41 23V27C41 28.1046 40.1046 29 39 29H25C23.8954 29 23 28.1046 23 27V23Z" stroke="white" stroke-width="2"/>
</svg>
