<svg width="40" height="48" viewBox="0 0 40 48" fill="none" xmlns="http://www.w3.org/2000/svg">
<path d="M27.7753 30.6511L24.8091 27.7067C25.9605 26.2699 26.5181 24.4464 26.3672 22.6109C26.2164 20.7754 25.3685 19.0675 23.998 17.8383C22.6275 16.6092 20.8385 15.9523 18.9989 16.0027C17.1593 16.0531 15.4089 16.8069 14.1076 18.1092C12.8063 19.4115 12.053 21.1632 12.0027 23.0042C11.9524 24.8452 12.6088 26.6356 13.8369 28.0071C15.0651 29.3787 16.7717 30.2272 18.6058 30.3781C20.4399 30.5291 22.2621 29.9711 23.6978 28.8188L26.64 31.7633C26.7143 31.8383 26.8028 31.8978 26.9002 31.9385C26.9976 31.9791 27.1021 32 27.2077 32C27.3132 32 27.4177 31.9791 27.5152 31.9385C27.6126 31.8978 27.701 31.8383 27.7753 31.7633C27.9194 31.6141 28 31.4147 28 31.2072C28 30.9997 27.9194 30.8003 27.7753 30.6511ZM19.2124 28.8188C18.1055 28.8188 17.0235 28.4903 16.1031 27.8749C15.1827 27.2595 14.4654 26.3847 14.0418 25.3613C13.6182 24.3379 13.5073 23.2117 13.7233 22.1252C13.9392 21.0388 14.4723 20.0408 15.255 19.2575C16.0377 18.4742 17.0349 17.9407 18.1206 17.7246C19.2062 17.5085 20.3315 17.6194 21.3542 18.0433C22.3768 18.4673 23.2509 19.1851 23.8659 20.1062C24.4809 21.0273 24.8091 22.1102 24.8091 23.2179C24.8091 24.7034 24.2195 26.128 23.1699 27.1784C22.1203 28.2287 20.6968 28.8188 19.2124 28.8188Z" fill="#A0A3BD"/>
</svg>
